<?xml version="1.0" encoding="UTF-8"?>
<svg id="A4:_außen" data-name="A4: außen" xmlns="http://www.w3.org/2000/svg" viewBox="0 0 626.87 171.39">
  <g>
    <path d="M335.82,89.22h-12.88c-.19-2.08-.8-3.81-1.86-5.25-1.51-1.89-3.27-2.85-5.25-2.85-3.3,0-6.28,2.66-9.1,8.1-.16.26-.29.51-.42.8l-3.01,6.28c-5.51,11.24-12.4,16.95-20.44,16.95-.29,0-.58,0-.83-.03-4.87-.19-8.94-2.24-12.43-6.18-2.37-2.59-4-5.73-4.87-9.35-.45-1.86-.7-3.81-.77-5.93v-2.53h13.07v2.53c.13,1.99.64,3.59,1.54,4.8,1.15,1.6,2.69,2.43,4.48,2.43,1.41,0,2.66-.54,3.75-1.57.96-.83,2.05-2.59,3.68-5.99l.03-.06,1.06-2.15,2.18-4.52c3.27-6.85,6.63-11.6,9.96-14.13,3.33-2.47,7.11-3.68,11.53-3.68,5.89,0,10.73,2.21,14.7,6.69,3.49,3.94,5.45,9.19,5.86,15.63Z" fill="#002934"/>
    <g>
      <rect x="83.84" y="38.8" width="467.85" height="78.16" fill="none"/>
      <path d="M153.12,69.62l-7.89,7.66c-3.21-3.08-6.12-4.62-8.73-4.62-1.43,0-2.55.29-3.36.88-.81.59-1.21,1.32-1.21,2.2,0,.67.26,1.28.77,1.84.51.56,1.78,1.32,3.8,2.29l4.67,2.27c4.92,2.36,8.29,4.76,10.13,7.21s2.75,5.32,2.75,8.61c0,4.38-1.66,8.04-4.97,10.97-3.31,2.93-7.76,4.4-13.33,4.4-7.41,0-13.32-2.81-17.74-8.43l7.84-8.29c1.49,1.69,3.24,3.06,5.25,4.1,2.01,1.04,3.79,1.56,5.35,1.56,1.68,0,3.03-.39,4.06-1.18,1.03-.79,1.54-1.69,1.54-2.72,0-1.9-1.85-3.76-5.56-5.58l-4.29-2.08c-8.22-4.02-12.32-9.05-12.32-15.09,0-3.9,1.55-7.23,4.65-9.99,3.1-2.76,7.06-4.15,11.88-4.15,3.3,0,6.4.7,9.31,2.11,2.91,1.4,5.38,3.42,7.4,6.05Z" fill="#002934"/>
      <path d="M178.38,61.46c4.79,0,9.3,1.16,13.52,3.49,4.22,2.33,7.51,5.48,9.87,9.47,2.36,3.99,3.55,8.29,3.55,12.92s-1.19,9-3.57,13.05-5.63,7.21-9.73,9.5c-4.11,2.28-8.64,3.42-13.59,3.42-7.28,0-13.5-2.52-18.65-7.55-5.15-5.03-7.73-11.14-7.73-18.33,0-7.71,2.91-14.13,8.73-19.26,5.1-4.47,10.97-6.71,17.6-6.71ZM178.59,73.1c-3.96,0-7.26,1.34-9.89,4.01-2.63,2.67-3.95,6.1-3.95,10.27s1.3,7.77,3.9,10.42c2.6,2.66,5.9,3.99,9.89,3.99s7.31-1.34,9.96-4.03c2.65-2.69,3.97-6.15,3.97-10.38s-1.3-7.67-3.9-10.31c-2.6-2.64-5.93-3.97-9.98-3.97Z" fill="#002934"/>
      <path d="M206.17,62.73h12.75v5.05c2.89-2.37,5.51-4.01,7.85-4.94,2.35-.92,4.75-1.39,7.2-1.39,5.03,0,9.31,1.71,12.82,5.12,2.95,2.9,4.43,7.19,4.43,12.87v32.59h-12.6v-21.6c0-5.88-.27-9.79-.82-11.72s-1.49-3.4-2.84-4.41-3.02-1.52-5.01-1.52c-2.58,0-4.79.84-6.64,2.51-1.85,1.67-3.13,3.99-3.84,6.95-.37,1.54-.56,4.87-.56,10v19.78h-12.75v-49.31Z" fill="#002934"/>
      <path d="M258.96,42.42c2.23,0,4.15.79,5.75,2.36s2.4,3.47,2.4,5.71-.79,4.09-2.37,5.64c-1.58,1.56-3.48,2.33-5.68,2.33s-4.2-.79-5.8-2.38c-1.6-1.59-2.4-3.51-2.4-5.78s.79-4.03,2.37-5.58c1.58-1.54,3.49-2.31,5.73-2.31ZM252.58,62.73h12.74v49.31h-12.74v-49.31Z" fill="#002934"/>
      <path d="M386.99,90.96h-40.94c.59,3.51,2.17,6.29,4.74,8.36,2.57,2.07,5.84,3.1,9.83,3.1,4.76,0,8.85-1.62,12.28-4.85l10.74,4.9c-2.68,3.69-5.88,6.41-9.62,8.18s-8.17,2.65-13.31,2.65c-7.97,0-14.46-2.44-19.47-7.32-5.01-4.88-7.52-10.99-7.52-18.33s2.5-13.77,7.49-18.74c5-4.97,11.26-7.46,18.79-7.46,8,0,14.5,2.49,19.51,7.46,5.01,4.97,7.52,11.54,7.52,19.69l-.05,2.36ZM374.24,81.22c-.84-2.75-2.5-4.99-4.98-6.71-2.48-1.72-5.35-2.58-8.63-2.58-3.55,0-6.67.97-9.35,2.9-1.68,1.21-3.24,3.34-4.68,6.39h27.64Z" fill="#002934"/>
      <path d="M387.74,62.73h12.75v5.05c2.89-2.37,5.51-4.01,7.85-4.94,2.35-.92,4.75-1.39,7.2-1.39,5.03,0,9.31,1.71,12.82,5.12,2.95,2.9,4.43,7.19,4.43,12.87v32.59h-12.6v-21.6c0-5.88-.27-9.79-.82-11.72s-1.49-3.4-2.84-4.41-3.02-1.52-5.01-1.52c-2.58,0-4.79.84-6.64,2.51-1.85,1.67-3.13,3.99-3.84,6.95-.37,1.54-.56,4.87-.56,10v19.78h-12.75v-49.31Z" fill="#002934"/>
      <path d="M466.65,69.62l-7.89,7.66c-3.21-3.08-6.12-4.62-8.73-4.62-1.43,0-2.55.29-3.36.88-.81.59-1.21,1.32-1.21,2.2,0,.67.26,1.28.77,1.84.51.56,1.78,1.32,3.8,2.29l4.67,2.27c4.92,2.36,8.29,4.76,10.13,7.21s2.75,5.32,2.75,8.61c0,4.38-1.66,8.04-4.97,10.97-3.31,2.93-7.76,4.4-13.33,4.4-7.41,0-13.32-2.81-17.74-8.43l7.84-8.29c1.49,1.69,3.24,3.06,5.25,4.1,2.01,1.04,3.79,1.56,5.35,1.56,1.68,0,3.03-.39,4.06-1.18,1.03-.79,1.54-1.69,1.54-2.72,0-1.9-1.85-3.76-5.56-5.58l-4.29-2.08c-8.22-4.02-12.32-9.05-12.32-15.09,0-3.9,1.55-7.23,4.65-9.99,3.1-2.76,7.06-4.15,11.88-4.15,3.3,0,6.4.7,9.31,2.11,2.91,1.4,5.38,3.42,7.4,6.05Z" fill="#002934"/>
      <path d="M516.08,90.96h-40.94c.59,3.51,2.17,6.29,4.74,8.36,2.57,2.07,5.84,3.1,9.83,3.1,4.76,0,8.85-1.62,12.28-4.85l10.74,4.9c-2.68,3.69-5.88,6.41-9.62,8.18s-8.17,2.65-13.31,2.65c-7.97,0-14.46-2.44-19.47-7.32-5.01-4.88-7.52-10.99-7.52-18.33s2.5-13.77,7.49-18.74c5-4.97,11.26-7.46,18.79-7.46,8,0,14.5,2.49,19.51,7.46,5.01,4.97,7.52,11.54,7.52,19.69l-.05,2.36ZM503.33,81.22c-.84-2.75-2.5-4.99-4.98-6.71-2.48-1.72-5.35-2.58-8.63-2.58-3.55,0-6.67.97-9.35,2.9-1.68,1.21-3.24,3.34-4.68,6.39h27.64Z" fill="#002934"/>
    </g>
  </g>
  <polygon points="334.41 112.04 322.4 112.04 307.18 98.8 310.67 91.62 334.41 112.04" fill="#002934"/>
  <polygon points="292.16 75.71 288.73 82.75 265.33 62.39 276.68 62.39 292.16 75.71" fill="#002934"/>
</svg>