<svg xmlns="http://www.w3.org/2000/svg" viewBox="0 0 1000 1000" width="1000" height="1000"><defs></defs><rect width="1000" height="1000" rx="220" ry="220" fill="#071D23"/><g transform="translate(-1090.36,127.63) scale(3.66864)"><path d="M 350.075 39.050 c -1.600 2.075 -0.800 9.650 1.525 14.575 1.775 3.725 2.850 5.375 7.225 11.075 0.850 1.100 3.700 4.025 7.100 7.300 11.025 10.575 18.800 18.700 21.950 22.900 0.550 0.750 2.050 2.650 3.325 4.275 1.250 1.600 2.300 3.025 2.300 3.175 -0.025 0.500 -0.750 1.250 -17.100 17.650 -20.200 20.275 -20.000 20.025 -23.775 28.625 -2.100 4.850 -3.225 14.525 -2.150 18.900 0.275 1.200 0.525 2.550 0.525 3.000 0.000 0.475 0.225 1.300 0.475 1.850 0.250 0.550 0.525 1.425 0.625 1.925 0.775 4.225 7.500 14.450 9.475 14.450 0.850 -0.000 1.350 -0.450 16.425 -15.500 5.850 -5.850 17.875 -17.750 26.700 -26.475 8.825 -8.700 16.325 -16.300 16.675 -16.875 0.325 -0.550 0.850 -1.525 1.125 -2.150 0.300 -0.625 0.775 -1.625 1.075 -2.250 0.475 -1.025 0.525 -1.525 0.525 -5.250 -0.025 -5.025 -0.225 -5.800 -2.850 -10.450 -0.375 -0.650 -70.525 -71.050 -70.800 -71.050 -0.075 -0.000 -0.250 0.150 -0.375 0.300 z" fill="#FFFFFF"/><path d="M 493.500 25.675 c -6.300 6.300 -15.250 15.150 -19.900 19.700 -13.575 13.225 -13.950 13.625 -19.825 19.450 -11.625 11.500 -13.475 16.225 -9.975 25.550 1.175 3.125 0.875 2.800 37.575 39.550 37.150 37.250 35.475 35.675 35.700 33.125 0.675 -7.050 -0.375 -11.450 -4.100 -17.300 -1.625 -2.550 -2.350 -3.625 -2.475 -3.750 -0.375 -0.375 -2.750 -3.250 -3.375 -4.125 -0.850 -1.175 -5.925 -6.325 -7.275 -7.400 -4.400 -3.500 -18.575 -18.400 -22.225 -23.400 -3.225 -4.375 -4.125 -5.725 -4.125 -6.175 0.000 -0.300 5.225 -5.675 13.800 -14.250 7.600 -7.575 14.850 -14.900 16.150 -16.275 1.275 -1.375 2.550 -2.600 2.800 -2.750 0.250 -0.125 1.175 -1.200 2.050 -2.375 4.050 -5.450 5.175 -7.750 7.175 -14.500 1.725 -5.775 1.725 -13.350 0.000 -18.900 -0.275 -0.825 -0.475 -1.700 -0.475 -1.950 0.000 -0.250 -0.150 -0.750 -0.350 -1.100 -0.200 -0.375 -0.900 -1.925 -1.550 -3.425 -0.650 -1.525 -1.375 -3.025 -1.625 -3.375 -0.225 -0.350 -0.825 -1.275 -1.325 -2.050 -1.150 -1.800 -4.350 -5.550 -4.825 -5.650 -0.200 -0.050 -5.375 4.950 -11.825 11.375 z" fill="#FFFFFF"/><path d="M 356.675 17.800 c -0.675 0.925 -2.675 4.975 -2.675 5.425 0.000 0.175 -0.225 0.750 -0.525 1.300 -0.800 1.600 -1.275 1.000 13.675 16.200 4.550 4.625 9.050 9.175 9.975 10.150 0.925 0.950 6.625 6.775 12.675 12.925 6.050 6.150 11.300 11.550 11.650 12.000 0.375 0.475 2.025 2.200 3.675 3.850 8.600 8.600 39.900 40.550 40.475 41.300 0.500 0.650 3.600 3.800 25.650 26.175 5.025 5.075 11.500 11.700 14.375 14.675 22.475 23.250 21.700 22.600 23.225 19.300 0.200 -0.425 0.550 -0.900 0.750 -1.100 0.225 -0.175 0.400 -0.525 0.400 -0.800 0.000 -0.250 0.225 -0.900 0.500 -1.450 0.275 -0.550 0.500 -1.175 0.500 -1.425 0.025 -0.250 0.175 -0.725 0.375 -1.075 0.450 -0.850 0.250 -1.075 -9.875 -11.350 -15.700 -15.925 -32.350 -32.925 -38.225 -39.050 -1.850 -1.900 -6.900 -7.075 -11.250 -11.500 -14.700 -14.950 -28.675 -29.225 -30.425 -31.050 -2.500 -2.650 -6.950 -7.225 -14.700 -15.050 -12.925 -13.100 -28.850 -29.375 -29.550 -30.250 -0.400 -0.475 -2.475 -2.625 -4.600 -4.775 -2.125 -2.150 -6.400 -6.450 -9.450 -9.575 -6.200 -6.250 -5.800 -5.950 -6.625 -4.850 z" fill="#FFFFFF"/></g></svg>